<svg xmlns="http://www.w3.org/2000/svg" xmlns:xlink="http://www.w3.org/1999/xlink" version="1.1" x="0px" y="0px" viewBox="0 0 91 91" enable-background="new 0 0 91 91" xml:space="preserve"><g><path d="M79.215,26.545c-5.016-4.497-11.431-6.248-19.059-5.206c-30.441,4.165-34.902,47.094-35.076,48.921   c-0.01,0.105-0.015,0.214-0.008,0.323c0,0.023,0.044,2.483-1.999,4.43c-2.162,2.058-6.047,2.892-11.221,2.422   c-2.005-0.185-3.515-0.95-4.616-2.344c-2.532-3.201-2.348-9.089-2.064-11.088c4.783-32.98,25.79-41.75,26.683-42.108   c1.199-0.474,1.787-1.831,1.313-3.032c-0.474-1.207-1.838-1.797-3.034-1.321c-0.995,0.39-24.405,9.985-29.596,45.79   c-0.053,0.372-1.281,9.199,3.013,14.648c1.914,2.429,4.563,3.815,7.874,4.118c1.097,0.1,2.151,0.15,3.159,0.15   c5.103,0,9.036-1.289,11.721-3.845c3.188-3.036,3.438-6.845,3.449-7.802c0.248-2.298,4.895-41.045,31.036-44.624   c6.201-0.857,11.349,0.513,15.293,4.046c8.621,7.722,9.745,23.673,9.881,28.842l-54.23,17.014c-1.232,0.387-1.92,1.7-1.533,2.934   c0.385,1.237,1.696,1.919,2.934,1.533l55.883-17.53c0.953-0.301,1.611-1.173,1.639-2.172   C90.682,59.695,91.149,37.246,79.215,26.545z"></path><path d="M22.138,44.701l0.605-0.366c4.527-2.748,5.579-4.239,6.623-9.375l0.079-0.392c0.75-3.694,1.099-4.533,3.11-5.011   c0.97-0.231,1.707-0.239,2.418-0.248c2.854-0.032,4.495-0.784,6.079-4.963c0.358-0.942,0.586-1.874,0.79-2.695   c0.629-2.558,0.915-3.135,2.5-3.455c1.01-0.208,1.789,0.076,3.083,0.584c1.691,0.663,4.01,1.575,7.061,0.36   c1.609-0.64,3.053-1.391,4.45-2.117c5.193-2.704,7.14-3.722,10.479,2.276c0.628,1.133,2.054,1.533,3.184,0.908   c1.129-0.629,1.535-2.054,0.908-3.184c-5.549-9.972-11.75-6.748-16.731-4.154c-1.294,0.673-2.63,1.368-4.017,1.92   c-1.276,0.508-2.075,0.239-3.618-0.368c-1.476-0.58-3.307-1.298-5.723-0.815c-4.649,0.934-5.5,4.396-6.123,6.926   c-0.186,0.76-0.364,1.478-0.618,2.155c-0.626,1.647-0.906,1.912-0.889,1.897c-0.127,0.036-0.555,0.04-0.868,0.044   c-0.83,0.008-1.967,0.021-3.444,0.373c-5.115,1.215-5.914,5.16-6.616,8.638l-0.081,0.387c-0.809,3.987-1.139,4.287-4.467,6.309   l-0.589,0.357c-2.879,1.738-6.144,3.707-5.068,9.136c0.362,1.829,1.073,3.192,1.647,4.287c0.813,1.563,1.262,2.423,0.847,4.234   c-0.394,1.713-1.37,3.324-2.32,3.832c-0.292,0.155-0.678,0.282-1.33,0.03c-1.209-0.46-2.564,0.142-3.026,1.349   c-0.463,1.207,0.14,2.562,1.349,3.025c0.788,0.301,1.58,0.451,2.356,0.451c0.985,0,1.946-0.241,2.852-0.723   c2.6-1.387,4.125-4.481,4.683-6.916c0.803-3.496-0.294-5.597-1.262-7.449c-0.5-0.959-0.972-1.862-1.203-3.033   C18.82,46.772,19.282,46.425,22.138,44.701z"></path><path d="M65.995,35.533c0.023,0.063,6.384-0.034,8.359,10.504c0.211,1.125,1.193,1.91,2.299,1.91c0.145,0,0.29-0.013,0.435-0.04   c1.27-0.239,2.108-1.461,1.871-2.733c-2.683-14.292-12.591-14.388-13.021-14.322c-1.292,0.015-2.329,1.075-2.313,2.369   c0.016,1.285,1.062,2.312,2.342,2.312C65.977,35.533,65.985,35.533,65.995,35.533z"></path></g></svg>